         1         2.01355326
         0.35      3.50       0.10
         93         6
       0.62770205E+01     -0.91211060E-02      0.72351759E-05
     -0.30783915E-08      0.66184943E-12     -0.56364855E-16
      0.76929393E+01     -0.80941254E-02      0.48663010E-05
     -0.15991157E-08      0.26844117E-12     -0.17952470E-16
      0.11273993E+02     -0.14037176E-01      0.10385314E-04
     -0.42233452E-08      0.87778493E-12     -0.72778447E-16
      0.12199254E+02     -0.15135995E-01      0.12126071E-04
     -0.53679465E-08      0.12002180E-11     -0.10566684E-15
      0.18670311E+02     -0.26402006E-01      0.21664073E-04
     -0.95400967E-08      0.21085846E-11     -0.18346932E-15
      0.18871887E+02     -0.23562655E-01      0.17679620E-04
     -0.72785351E-08      0.15280310E-11     -0.12773651E-15
      0.19792345E+02     -0.19637551E-01      0.11255266E-04
     -0.35084382E-08      0.55374059E-12     -0.34320144E-16
      0.18822615E+02     -0.16208885E-01      0.80175387E-05
     -0.20307143E-08      0.22409491E-12     -0.56054804E-17
      0.17085714E+02     -0.91867559E-02      0.57399302E-06
      0.15972695E-08     -0.61787419E-12      0.69618750E-16
      0.16523621E+02     -0.82162470E-02      0.15576552E-06
      0.16562013E-08     -0.61301696E-12      0.68187363E-16
      0.25761625E+02     -0.27845534E-01      0.20402258E-04
     -0.85658209E-08      0.18535251E-11     -0.15969402E-15
      0.26305370E+02     -0.28768122E-01      0.20554166E-04
     -0.83061718E-08      0.17317853E-11     -0.14447466E-15
      0.24250523E+02     -0.24803953E-01      0.17974684E-04
     -0.75626865E-08      0.16448798E-11     -0.14246267E-15
      0.33742256E+02     -0.45778684E-01      0.38027149E-04
     -0.17045956E-07      0.38279800E-11     -0.33747338E-15
      0.39079941E+02     -0.56163415E-01      0.46998364E-04
     -0.20913360E-07      0.46479418E-11     -0.40564371E-15
      0.41076950E+02     -0.57678718E-01      0.46517769E-04
     -0.20015284E-07      0.43264030E-11     -0.36914458E-15
      0.41586239E+02     -0.56088708E-01      0.44598812E-04
     -0.19096465E-07      0.41234329E-11     -0.35204209E-15
      0.43432629E+02     -0.58432393E-01      0.45846919E-04
     -0.19322030E-07      0.41106888E-11     -0.34643536E-15
      0.41777390E+02     -0.47771275E-01      0.34519704E-04
     -0.14091206E-07      0.29704889E-11     -0.25050237E-15
      0.34696236E+02     -0.26937854E-01      0.11523281E-04
     -0.21689335E-08      0.56859817E-13      0.20525225E-16
      0.43711601E+02     -0.46977565E-01      0.30036756E-04
     -0.10648413E-07      0.19558092E-11     -0.14523173E-15
      0.41105549E+02     -0.45001294E-01      0.31912536E-04
     -0.12775616E-07      0.26398677E-11     -0.21846724E-15
      0.45540245E+02     -0.47720000E-01      0.29562314E-04
     -0.10063416E-07      0.17596914E-11     -0.12345274E-15
      0.36360893E+02     -0.32656476E-01      0.20220821E-04
     -0.74088025E-08      0.14426514E-11     -0.11451514E-15
      0.34897453E+02     -0.28838087E-01      0.16433572E-04
     -0.55674376E-08      0.10092706E-11     -0.75111831E-16
      0.37508461E+02     -0.35153251E-01      0.22910841E-04
     -0.87661700E-08      0.17671552E-11     -0.14420590E-15
      0.34670097E+02     -0.28564276E-01      0.16586993E-04
     -0.57458167E-08      0.10644339E-11     -0.80828787E-16
      0.28882313E+02     -0.16715290E-01      0.68426116E-05
     -0.16558588E-08      0.20518362E-12     -0.93250660E-17
      0.29098677E+02     -0.18810159E-01      0.96267986E-05
     -0.31051077E-08      0.54713477E-12     -0.39829977E-16
      0.27990507E+02     -0.12441518E-01      0.17483931E-05
      0.10824157E-08     -0.47936562E-12      0.55393417E-16
      0.31646908E+02     -0.19267486E-01      0.63079328E-05
     -0.25843860E-09     -0.31636101E-12      0.50727850E-16
      0.34664169E+02     -0.28991142E-01      0.18758508E-04
     -0.71693584E-08      0.14354287E-11     -0.11589084E-15
      0.40930897E+02     -0.43441143E-01      0.31811822E-04
     -0.13073127E-07      0.27522015E-11     -0.23088345E-15
      0.40714977E+02     -0.44459566E-01      0.34416506E-04
     -0.14826687E-07      0.32361767E-11     -0.27906260E-15
      0.48978245E+02     -0.63551188E-01      0.53201969E-04
     -0.23700997E-07      0.52540624E-11     -0.45656516E-15
      0.52068996E+02     -0.66563591E-01      0.53917040E-04
     -0.23462068E-07      0.51187010E-11     -0.43982503E-15
      0.50381336E+02     -0.51195711E-01      0.35778994E-04
     -0.14444258E-07      0.30330807E-11     -0.25543816E-15
      0.56443325E+02     -0.60493980E-01      0.38849903E-04
     -0.13496360E-07      0.23848716E-11     -0.16815203E-15
      0.55464142E+02     -0.61063383E-01      0.41951069E-04
     -0.15893136E-07      0.30955208E-11     -0.24222898E-15
      0.61507919E+02     -0.74830770E-01      0.55459332E-04
     -0.22370619E-07      0.45941879E-11     -0.37614666E-15
      0.52775440E+02     -0.49884237E-01      0.32825559E-04
     -0.12655704E-07      0.25669172E-11     -0.21051987E-15
      0.48521961E+02     -0.45919649E-01      0.30511184E-04
     -0.11857555E-07      0.24191055E-11     -0.19924385E-15
      0.53965855E+02     -0.58541276E-01      0.43839638E-04
     -0.18563309E-07      0.40233663E-11     -0.34621903E-15
      0.48265621E+02     -0.40651616E-01      0.24361516E-04
     -0.87061327E-08      0.16606637E-11     -0.12952985E-15
      0.46800240E+02     -0.38353674E-01      0.22895698E-04
     -0.82323641E-08      0.15858043E-11     -0.12502742E-15
      0.42965145E+02     -0.28501259E-01      0.13572052E-04
     -0.38787120E-08      0.59194799E-12     -0.36707232E-16
      0.43143959E+02     -0.25880182E-01      0.75961252E-05
      0.16830404E-09     -0.53798274E-12      0.76898157E-16
      0.50419960E+02     -0.47625504E-01      0.32719727E-04
     -0.13136487E-07      0.27500775E-11     -0.23101670E-15
      0.49440449E+02     -0.42323992E-01      0.26087329E-04
     -0.94932551E-08      0.18271357E-11     -0.14295893E-15
      0.52378181E+02     -0.48506867E-01      0.30951971E-04
     -0.11408719E-07      0.22040028E-11     -0.17245370E-15
      0.55307304E+02     -0.58286380E-01      0.43690045E-04
     -0.18661336E-07      0.40839411E-11     -0.35452797E-15
      0.54440060E+02     -0.47930062E-01      0.28134426E-04
     -0.93930490E-08      0.16381280E-11     -0.11584994E-15
      0.68484779E+02     -0.88397503E-01      0.71866380E-04
     -0.31424438E-07      0.68940283E-11     -0.59562160E-15
      0.68083641E+02     -0.86042739E-01      0.69358743E-04
     -0.30179624E-07      0.65976556E-11     -0.56844741E-15
      0.63748100E+02     -0.62472872E-01      0.42688764E-04
     -0.16980373E-07      0.35292550E-11     -0.29502065E-15
      0.74160782E+02     -0.92065133E-01      0.73348703E-04
     -0.31936541E-07      0.70188295E-11     -0.60865818E-15
      0.69157875E+02     -0.73699996E-01      0.52369967E-04
     -0.21230296E-07      0.44589159E-11     -0.37513665E-15
      0.72526970E+02     -0.10068608E+00      0.87012682E-04
     -0.39583323E-07      0.89178474E-11     -0.78512442E-15
      0.59351891E+02     -0.58899604E-01      0.43343920E-04
     -0.18413575E-07      0.40223970E-11     -0.34891534E-15
      0.59680889E+02     -0.61038800E-01      0.45525176E-04
     -0.19374539E-07      0.42222749E-11     -0.36497617E-15
      0.60490108E+02     -0.58539305E-01      0.39902006E-04
     -0.15519786E-07      0.31271448E-11     -0.25308368E-15
      0.54231598E+02     -0.37368786E-01      0.19258217E-04
     -0.61598180E-08      0.10794114E-11     -0.78652819E-16
      0.48098114E+02     -0.33644404E-01      0.18630551E-04
     -0.61832099E-08      0.10866310E-11     -0.77629961E-16
      0.56944485E+02     -0.51396552E-01      0.33881293E-04
     -0.12891732E-07      0.25530804E-11     -0.20360639E-15
      0.52242504E+02     -0.44242050E-01      0.29697208E-04
     -0.11790330E-07      0.24420440E-11     -0.20294093E-15
      0.51352306E+02     -0.42088442E-01      0.28372049E-04
     -0.11500524E-07      0.24385142E-11     -0.20708075E-15
      0.45307701E+02     -0.35123363E-01      0.23951696E-04
     -0.98982653E-08      0.21320042E-11     -0.18318095E-15
      0.47014275E+02     -0.31136956E-01      0.17763126E-04
     -0.65208696E-08      0.13063630E-11     -0.10722322E-15
      0.48583153E+02     -0.41764170E-01      0.29692917E-04
     -0.12361144E-07      0.26527673E-11     -0.22646643E-15
      0.49168839E+02     -0.36343127E-01      0.19210325E-04
     -0.56305396E-08      0.81949616E-12     -0.44668941E-16
      0.50444813E+02     -0.45094173E-01      0.31448930E-04
     -0.12598522E-07      0.26009637E-11     -0.21453868E-15
      0.51311348E+02     -0.48775688E-01      0.36654932E-04
     -0.15686515E-07      0.34194843E-11     -0.29486609E-15
      0.48080826E+02     -0.38371194E-01      0.26328209E-04
     -0.10840571E-07      0.23217476E-11     -0.19838220E-15
      0.46858261E+02     -0.30602038E-01      0.15057477E-04
     -0.45063158E-08      0.72787181E-12     -0.48365777E-16
      0.44565788E+02     -0.26382083E-01      0.13130574E-04
     -0.42502446E-08      0.76898232E-12     -0.58247524E-16
      0.43576786E+02     -0.23457957E-01      0.10126413E-04
     -0.27754017E-08      0.42131904E-12     -0.26674417E-16
      0.45907448E+02     -0.32069925E-01      0.20050991E-04
     -0.78577989E-08      0.16382812E-11     -0.13774945E-15
      0.47492832E+02     -0.36575735E-01      0.22947701E-04
     -0.84138021E-08      0.16035323E-11     -0.12286283E-15
      0.42319427E+02     -0.12044141E-01     -0.71118939E-05
      0.75534601E-08     -0.23092817E-11      0.23978076E-15
      0.49089764E+02     -0.30820070E-01      0.11480393E-04
     -0.10477434E-08     -0.40507376E-12      0.76679563E-16
      0.54724113E+02     -0.47108267E-01      0.30698120E-04
     -0.11442153E-07      0.22050311E-11     -0.17062650E-15
      0.56151451E+02     -0.39986826E-01      0.17730521E-04
     -0.35288386E-08      0.12611128E-12      0.30134478E-16
      0.63395058E+02     -0.52832957E-01      0.28875562E-04
     -0.85560137E-08      0.12534829E-11     -0.68980802E-16
      0.67063995E+02     -0.64692907E-01      0.41486201E-04
     -0.14472910E-07      0.25480523E-11     -0.17723335E-15
      0.70109398E+02     -0.72462469E-01      0.50565635E-04
     -0.19519653E-07      0.38545738E-11     -0.30434201E-15
      0.73189789E+02     -0.80147758E-01      0.58697995E-04
     -0.23614378E-07      0.48388385E-11     -0.39510741E-15
      0.72468147E+02     -0.69751464E-01      0.43077300E-04
     -0.14509848E-07      0.24851837E-11     -0.16925301E-15
      0.76680893E+02     -0.74508868E-01      0.44426732E-04
     -0.13959482E-07      0.21475211E-11     -0.12455400E-15
      0.82396317E+02     -0.86466305E-01      0.57610807E-04
     -0.21083096E-07      0.39546721E-11     -0.29758893E-15
      0.74578346E+02     -0.69054276E-01      0.40951352E-04
     -0.13193209E-07      0.21393295E-11     -0.13571416E-15
      0.67424240E+02     -0.48869461E-01      0.20178581E-04
     -0.29561804E-08     -0.28100455E-12      0.84502151E-16
      0.67470802E+02     -0.65028004E-01      0.45685854E-04
     -0.18231267E-07      0.37457849E-11     -0.30766600E-15
     0.10372131E+02     -0.44306275E-03     -0.67289379E-05
     0.46744359E-08     -0.12394339E-11      0.11717369E-15
