         1         1.00727648
         0.35      3.50       0.10
         93         6
      0.43747082E+01     -0.75079310E-02      0.67065089E-05
     -0.31102370E-08      0.71261687E-12     -0.63677277E-16
      0.65920558E+01     -0.10572650E-01      0.91902220E-05
     -0.41991628E-08      0.95288718E-12     -0.84567379E-16
      0.86165113E+01     -0.13315442E-01      0.11512207E-04
     -0.52700138E-08      0.11998370E-11     -0.10682938E-15
      0.91011229E+01     -0.12198211E-01      0.98308901E-05
     -0.43385762E-08      0.96729981E-12     -0.85009663E-16
      0.12910935E+02     -0.19767877E-01      0.17045782E-04
     -0.78033997E-08      0.17782096E-11     -0.15849846E-15
      0.14326475E+02     -0.21743951E-01      0.18772746E-04
     -0.85984455E-08      0.19589224E-11     -0.17450778E-15
      0.17406412E+02     -0.27285321E-01      0.23591900E-04
     -0.10738431E-07      0.24290765E-11     -0.21501378E-15
      0.17374786E+02     -0.25752263E-01      0.21766704E-04
     -0.97935535E-08      0.22000388E-11     -0.19384655E-15
      0.17940968E+02     -0.24989717E-01      0.20225192E-04
     -0.88328145E-08      0.19426964E-11     -0.16852924E-15
      0.17405901E+02     -0.23101894E-01      0.18427350E-04
     -0.80089251E-08      0.17585319E-11     -0.15246875E-15
      0.20827866E+02     -0.27250972E-01      0.21560259E-04
     -0.93852908E-08      0.20720385E-11     -0.18080429E-15
      0.21266264E+02     -0.29256647E-01      0.24126191E-04
     -0.10785950E-07      0.24222237E-11     -0.21377695E-15
      0.19979582E+02     -0.24800550E-01      0.19159497E-04
     -0.82353182E-08      0.18045041E-11     -0.15669014E-15
      0.23742990E+02     -0.33399921E-01      0.27916149E-04
     -0.12577577E-07      0.28394158E-11     -0.25156452E-15
      0.26355528E+02     -0.39342165E-01      0.34111945E-04
     -0.15711720E-07      0.35969389E-11     -0.32170102E-15
      0.28458494E+02     -0.44361409E-01      0.39288083E-04
     -0.18285219E-07      0.42098924E-11     -0.37779858E-15
      0.29738438E+02     -0.45255568E-01      0.39608454E-04
     -0.18309521E-07      0.41969058E-11     -0.37546615E-15
      0.31183331E+02     -0.48401620E-01      0.42951739E-04
     -0.20013527E-07      0.46095064E-11     -0.41364939E-15
      0.33416077E+02     -0.48205547E-01      0.39932736E-04
     -0.17769812E-07      0.39695044E-11     -0.34877855E-15
      0.33178295E+02     -0.47954734E-01      0.40092669E-04
     -0.17872233E-07      0.39844543E-11     -0.34894708E-15
      0.36788879E+02     -0.57310581E-01      0.49854083E-04
     -0.22790866E-07      0.51706191E-11     -0.45864436E-15
      0.33242100E+02     -0.46178646E-01      0.38248338E-04
     -0.17125792E-07      0.38487095E-11     -0.33981826E-15
      0.38695045E+02     -0.60040142E-01      0.52245487E-04
     -0.23918179E-07      0.54347481E-11     -0.48273668E-15
      0.32007992E+02     -0.41283183E-01      0.32591059E-04
     -0.14138212E-07      0.31101096E-11     -0.27050651E-15
      0.31603327E+02     -0.39951675E-01      0.31233511E-04
     -0.13473003E-07      0.29530798E-11     -0.25620965E-15
      0.32347553E+02     -0.41479804E-01      0.32870023E-04
     -0.14313265E-07      0.31578592E-11     -0.27526546E-15
      0.31271023E+02     -0.38702041E-01      0.30136855E-04
     -0.12991017E-07      0.28477041E-11     -0.24713330E-15
      0.28164206E+02     -0.29780846E-01      0.21064170E-04
     -0.85602334E-08      0.18061451E-11     -0.15268795E-15
      0.27341228E+02     -0.28121382E-01      0.20015321E-04
     -0.82566949E-08      0.17677052E-11     -0.15128515E-15
      0.28758965E+02     -0.30473938E-01      0.21716265E-04
     -0.88622416E-08      0.18735109E-11     -0.15850653E-15
      0.31113310E+02     -0.38162515E-01      0.30630476E-04
     -0.13531471E-07      0.30153933E-11     -0.26456976E-15
      0.30287369E+02     -0.33752855E-01      0.26111262E-04
     -0.11396906E-07      0.25315542E-11     -0.22210972E-15
      0.32910763E+02     -0.41819304E-01      0.34507426E-04
     -0.15543346E-07      0.35129083E-11     -0.31150579E-15
      0.31751316E+02     -0.37706409E-01      0.30287822E-04
     -0.13512725E-07      0.30440340E-11     -0.26968735E-15
      0.34204304E+02     -0.42910483E-01      0.36383302E-04
     -0.16850750E-07      0.38918378E-11     -0.35077638E-15
      0.37402317E+02     -0.50099235E-01      0.42967513E-04
     -0.19857909E-07      0.45670273E-11     -0.41001387E-15
      0.41948250E+02     -0.54490067E-01      0.43567245E-04
     -0.19077770E-07      0.42245708E-11     -0.36919583E-15
      0.47032200E+02     -0.72333470E-01      0.64688087E-04
     -0.30216334E-07      0.69570539E-11     -0.62344500E-15
      0.45096104E+02     -0.66206954E-01      0.57901998E-04
     -0.26739960E-07      0.61174728E-11     -0.54608045E-15
      0.47072536E+02     -0.70262119E-01      0.61944374E-04
     -0.28777102E-07      0.66138106E-11     -0.59250569E-15
      0.45345940E+02     -0.58150649E-01      0.46176774E-04
     -0.20128411E-07      0.44431485E-11     -0.38741281E-15
      0.41549061E+02     -0.52711844E-01      0.41839448E-04
     -0.18251383E-07      0.40318933E-11     -0.35177225E-15
      0.43028358E+02     -0.54366402E-01      0.43513228E-04
     -0.19163618E-07      0.42674293E-11     -0.37468190E-15
      0.43157078E+02     -0.53282782E-01      0.41596246E-04
     -0.17959175E-07      0.39404851E-11     -0.34217283E-15
      0.42071007E+02     -0.50540257E-01      0.38961611E-04
     -0.16707359E-07      0.36507017E-11     -0.31614581E-15
      0.40857292E+02     -0.46056870E-01      0.34177592E-04
     -0.14321724E-07      0.30832162E-11     -0.26429090E-15
      0.43027859E+02     -0.54314040E-01      0.43289900E-04
     -0.18871605E-07      0.41561737E-11     -0.36126193E-15
      0.42723064E+02     -0.51602814E-01      0.40321262E-04
     -0.17493479E-07      0.38571013E-11     -0.33632346E-15
      0.43662395E+02     -0.53111419E-01      0.41712694E-04
     -0.18151935E-07      0.40092196E-11     -0.34994285E-15
      0.45276550E+02     -0.58411613E-01      0.47410580E-04
     -0.21009054E-07      0.46904208E-11     -0.41222521E-15
      0.44571617E+02     -0.54384604E-01      0.42764641E-04
     -0.18629564E-07      0.41190146E-11     -0.35987484E-15
      0.48508068E+02     -0.64741254E-01      0.53758475E-04
     -0.24075000E-07      0.53996555E-11     -0.47545420E-15
      0.49170662E+02     -0.66774540E-01      0.57240686E-04
     -0.26348227E-07      0.60368724E-11     -0.54033963E-15
      0.49469952E+02     -0.66279285E-01      0.56515932E-04
     -0.25963134E-07      0.59435690E-11     -0.53176575E-15
      0.53840942E+02     -0.68869397E-01      0.54698256E-04
     -0.23866216E-07      0.52733720E-11     -0.46018167E-15
      0.55004375E+02     -0.74256338E-01      0.62041290E-04
     -0.28023733E-07      0.63395574E-11     -0.56247906E-15
      0.56619659E+02     -0.76404899E-01      0.62327148E-04
     -0.27561663E-07      0.61365331E-11     -0.53808456E-15
      0.48460922E+02     -0.62525257E-01      0.53516138E-04
     -0.24819435E-07      0.57288401E-11     -0.51585439E-15
      0.48809685E+02     -0.56677155E-01      0.43570883E-04
     -0.18778881E-07      0.41284792E-11     -0.35948991E-15
      0.48362255E+02     -0.56873571E-01      0.44407483E-04
     -0.19351882E-07      0.42866058E-11     -0.37523221E-15
      0.50764709E+02     -0.63523039E-01      0.51865271E-04
     -0.23202393E-07      0.52207583E-11     -0.46156355E-15
      0.50906036E+02     -0.56650255E-01      0.41638923E-04
     -0.17355839E-07      0.37253581E-11     -0.31878082E-15
      0.44276817E+02     -0.47028325E-01      0.35851830E-04
     -0.15532567E-07      0.34329577E-11     -0.30005970E-15
      0.48823574E+02     -0.58368079E-01      0.46860743E-04
     -0.20806452E-07      0.46633127E-11     -0.41132447E-15
      0.45174156E+02     -0.48734177E-01      0.37045415E-04
     -0.15995633E-07      0.35300484E-11     -0.30845922E-15
      0.44746273E+02     -0.46292506E-01      0.34039924E-04
     -0.14386285E-07      0.31314506E-11     -0.27111052E-15
      0.39680592E+02     -0.37670854E-01      0.26845180E-04
     -0.11208265E-07      0.24269083E-11     -0.20957782E-15
      0.43575462E+02     -0.42493358E-01      0.29739927E-04
     -0.12130558E-07      0.25755255E-11     -0.21903076E-15
      0.41263718E+02     -0.41696429E-01      0.31205098E-04
     -0.13432076E-07      0.29646767E-11     -0.25928684E-15
      0.45317905E+02     -0.53666972E-01      0.43849130E-04
     -0.19648073E-07      0.44195225E-11     -0.39020500E-15
      0.42578213E+02     -0.46431724E-01      0.36746162E-04
     -0.16330764E-07      0.36725020E-11     -0.32497457E-15
      0.41928902E+02     -0.43790072E-01      0.33632816E-04
     -0.14707227E-07      0.32783457E-11     -0.28861425E-15
      0.41800209E+02     -0.40659450E-01      0.29445639E-04
     -0.12401510E-07      0.26990743E-11     -0.23385415E-15
      0.44386940E+02     -0.48156738E-01      0.35670066E-04
     -0.14965925E-07      0.32260798E-11     -0.27680727E-15
      0.42450874E+02     -0.40861961E-01      0.28435004E-04
     -0.11527264E-07      0.24341096E-11     -0.20606853E-15
      0.42332581E+02     -0.40162865E-01      0.27619593E-04
     -0.11100809E-07      0.23295734E-11     -0.19631833E-15
      0.41503525E+02     -0.38848471E-01      0.27197275E-04
     -0.11186112E-07      0.23954569E-11     -0.20520076E-15
      0.41945271E+02     -0.43419857E-01      0.33850429E-04
     -0.14982467E-07      0.33654453E-11     -0.29771149E-15
      0.46531612E+02     -0.52440632E-01      0.41094299E-04
     -0.17832098E-07      0.39145440E-11     -0.33920702E-15
      0.47251789E+02     -0.56501798E-01      0.47162597E-04
     -0.21480950E-07      0.48871423E-11     -0.43497625E-15
      0.47157715E+02     -0.53594116E-01      0.43383887E-04
     -0.19496603E-07      0.44106754E-11     -0.39166957E-15
      0.53248547E+02     -0.68224065E-01      0.57348407E-04
     -0.25951961E-07      0.58589791E-11     -0.51801263E-15
      0.57481373E+02     -0.76524861E-01      0.65005508E-04
     -0.29546854E-07      0.66876643E-11     -0.59232786E-15
      0.56367775E+02     -0.74659027E-01      0.64937150E-04
     -0.30235764E-07      0.69773267E-11     -0.62730074E-15
      0.57061409E+02     -0.74583404E-01      0.63807674E-04
     -0.29372799E-07      0.67277880E-11     -0.60182654E-15
      0.57860905E+02     -0.76110557E-01      0.65556145E-04
     -0.30293396E-07      0.69538832E-11     -0.62289188E-15
      0.62351986E+02     -0.87647192E-01      0.76794167E-04
     -0.35547341E-07      0.81413513E-11     -0.72701669E-15
      0.66082512E+02     -0.96846782E-01      0.86768036E-04
     -0.40689084E-07      0.93954037E-11     -0.84362814E-15
      0.68110748E+02     -0.97373106E-01      0.85279942E-04
     -0.39486590E-07      0.90523648E-11     -0.80930933E-15
      0.65153931E+02     -0.90695821E-01      0.78676312E-04
     -0.36225984E-07      0.82727861E-11     -0.73749338E-15
      0.64081139E+02     -0.86245812E-01      0.73720235E-04
     -0.33696175E-07      0.76608511E-11     -0.68084434E-15
      0.55974133E+02     -0.66421494E-01      0.53820171E-04
     -0.24072754E-07      0.54237582E-11     -0.48021771E-15
      0.13374664E+02     -0.19687118E-01      0.15513566E-04
    -0.65920984E-08      0.14255819E-11     -0.12293634E-15
