###############################################################################
# Atomic stoppping power data file                                            #
#                                                                             #
# All lines at top of file beginning with # are considered comments.  First   #
# subsequent line begins formatted data stream.                               #
#                                                                             #
# Structure:                                                                  #
#      line 1 --  atomic_number        atomic_mass_AMU
#      line 2 --  lower_fit_energy     upper_fit_energy   lower_energy_cutoff
#      line 3 --  Number_of_elements   polynomial_order
###############################################################################
         2         4.00150586
         0.35      3.50       0.10
         93         6
       0.87184982E+01      0.15921589E-01     -0.23046354E-04
      0.12178546E-07     -0.29267712E-11      0.26667377E-15
      0.66426687E+01      0.33565104E-01     -0.38224171E-04
      0.18098028E-07     -0.40433772E-11      0.34927851E-15
      0.13817750E+02      0.35865985E-01     -0.45224151E-04
      0.22622885E-07     -0.52633796E-11      0.46918838E-15
      0.27996737E+02      0.11349400E-02     -0.80575919E-05
      0.43343773E-08     -0.10164166E-11      0.91180046E-16
      0.29919964E+02      0.37006583E-01     -0.56289278E-04
      0.30323783E-07     -0.74019697E-11      0.68322577E-15
      0.26032211E+02      0.51433805E-01     -0.66321227E-04
      0.33212157E-07     -0.77158280E-11      0.68664668E-15
      0.21386448E+02      0.74823059E-01     -0.83913001E-04
      0.38744385E-07     -0.84660915E-11      0.71824508E-15
      0.19950453E+02      0.74604869E-01     -0.79598212E-04
      0.35665948E-07     -0.76281759E-11      0.63682621E-15
      0.16138983E+02      0.78561164E-01     -0.75509502E-04
      0.31341411E-07     -0.62992376E-11      0.49975219E-15
      0.15151647E+02      0.78035779E-01     -0.74061936E-04
      0.30688653E-07     -0.61773303E-11      0.49130823E-15
      0.49749554E+02      0.33768211E-01     -0.44857417E-04
      0.21207624E-07     -0.47319479E-11      0.41152733E-15
      0.44236076E+02      0.52090414E-01     -0.64430067E-04
      0.30414384E-07     -0.67498641E-11      0.58071949E-15
      0.52111057E+02      0.17458323E-01     -0.24112842E-04
      0.10204780E-07     -0.20482420E-11      0.16370477E-15
      0.68004623E+02      0.28634520E-01     -0.57425466E-04
      0.32219063E-07     -0.80285344E-11      0.75286210E-15
      0.47850819E+02      0.12133559E+00     -0.16772807E-03
      0.90009124E-07     -0.22086529E-10      0.20499580E-14
      0.30966095E+02      0.18372849E+00     -0.23404352E-03
      0.12198404E-06     -0.29382493E-10      0.26900098E-14
      0.53633232E+02      0.12207554E+00     -0.16324846E-03
      0.84807233E-07     -0.20278217E-10      0.18448746E-14
      0.44209259E+02      0.16172497E+00     -0.20710028E-03
      0.10660057E-06     -0.25371342E-10      0.23004434E-14
      0.70664024E+02      0.81127077E-01     -0.10573396E-03
      0.51500336E-07     -0.11732074E-10      0.10323524E-14
      0.42734657E+02      0.12294931E+00     -0.12650166E-03
      0.54320438E-07     -0.11183998E-10      0.90422588E-15
      0.53493137E+02      0.14432552E+00     -0.16848942E-03
      0.79431445E-07     -0.17624577E-10      0.15134699E-14
      0.53588943E+02      0.12813358E+00     -0.15269837E-03
      0.74331652E-07     -0.17054604E-10      0.15095069E-14
      0.37224876E+02      0.20602648E+00     -0.23428010E-03
      0.11190222E-06     -0.25240894E-10      0.21993962E-14
      0.55485756E+02      0.95965028E-01     -0.10466968E-03
      0.47016435E-07     -0.10152947E-10      0.85974072E-15
      0.45636726E+02      0.11712777E+00     -0.12402642E-03
      0.56024952E-07     -0.12217243E-10      0.10441128E-14
      0.53641762E+02      0.10956071E+00     -0.12281157E-03
      0.57407906E-07     -0.12853778E-10      0.11217248E-14
      0.42310310E+02      0.12618388E+00     -0.13431069E-03
      0.61728024E-07     -0.13691345E-10      0.11871985E-14
      0.47324020E+02      0.75624883E-01     -0.67535162E-04
      0.25816902E-07     -0.48744815E-11      0.36993447E-15
      0.34825581E+02      0.11310133E+00     -0.11179908E-03
      0.49692854E-07     -0.10833907E-10      0.93066390E-15
      0.39341892E+02      0.94311655E-01     -0.81109989E-04
      0.30346516E-07     -0.55605754E-11      0.40584962E-15
      0.31906895E+02      0.13781226E+00     -0.13357807E-03
      0.56910373E-07     -0.11759473E-10      0.95653461E-15
      0.49854786E+02      0.10252824E+00     -0.10721865E-03
      0.48311989E-07     -0.10531868E-10      0.89976128E-15
      0.64470940E+02      0.95706329E-01     -0.11378245E-03
      0.54322925E-07     -0.12253263E-10      0.10699412E-14
      0.56928921E+02      0.11766932E+00     -0.14115090E-03
      0.70349017E-07     -0.16533136E-10      0.14937861E-14
      0.43089249E+02      0.20790419E+00     -0.25845872E-03
      0.13478692E-06     -0.32652648E-10      0.30078297E-14
      0.50422493E+02      0.20720039E+00     -0.25793153E-03
      0.13323960E-06     -0.31997432E-10      0.29275430E-14
      0.90769379E+02      0.87159067E-01     -0.10463551E-03
      0.47964402E-07     -0.10456917E-10      0.89147158E-15
      0.60508232E+02      0.20902696E+00     -0.23886541E-03
      0.11215301E-06     -0.24756086E-10      0.21114348E-14
      0.68257973E+02      0.18100084E+00     -0.21267528E-03
      0.10177366E-06     -0.22883773E-10      0.19858203E-14
      0.65091087E+02      0.22713622E+00     -0.27703281E-03
      0.13808747E-06     -0.32111688E-10      0.28618524E-14
      0.82879723E+02      0.13102753E+00     -0.14739034E-03
      0.67721459E-07     -0.14906848E-10      0.12826087E-14
      0.73534187E+02      0.12889659E+00     -0.14518645E-03
      0.67561913E-07     -0.15057322E-10      0.13091143E-14
      0.86310356E+02      0.12459155E+00     -0.15350450E-03
      0.75653844E-07     -0.17597576E-10      0.15795359E-14
      0.69383759E+02      0.14305766E+00     -0.15191105E-03
      0.68240411E-07     -0.14809310E-10      0.12612965E-14
      0.77135010E+02      0.11016440E+00     -0.11381260E-03
      0.48622297E-07     -0.10078946E-10      0.82652014E-15
      0.65126183E+02      0.12382415E+00     -0.11816670E-03
      0.48473609E-07     -0.97505528E-11      0.78067527E-15
      0.45858231E+02      0.18249382E+00     -0.17730797E-03
      0.75369783E-07     -0.15572394E-10      0.12696323E-14
      0.73236809E+02      0.14454173E+00     -0.16271912E-03
      0.77095201E-07     -0.17501691E-10      0.15455561E-14
      0.59510296E+02      0.18025485E+00     -0.19334811E-03
      0.89627065E-07     -0.19991052E-10      0.17388262E-14
      0.65053673E+02      0.18040858E+00     -0.19842411E-03
      0.92523244E-07     -0.20623010E-10      0.17882255E-14
      0.10535646E+03      0.79663575E-01     -0.10216464E-03
      0.49050808E-07     -0.11173172E-10      0.99038110E-15
      0.78435921E+02      0.15573460E+00     -0.16633532E-03
      0.73424623E-07     -0.15510699E-10      0.12833641E-14
      0.88250916E+02      0.20728850E+00     -0.26987560E-03
      0.14046576E-06     -0.33814125E-10      0.30980704E-14
      0.82551315E+02      0.22295605E+00     -0.28365097E-03
      0.14656898E-06     -0.35155323E-10      0.32138183E-14
      0.10946551E+03      0.12868880E+00     -0.14911882E-03
      0.68327616E-07     -0.14960852E-10      0.12815481E-14
      0.11710138E+03      0.16480334E+00     -0.22228889E-03
      0.11497050E-06     -0.27516080E-10      0.25130779E-14
      0.11683581E+03      0.14000610E+00     -0.17219486E-03
      0.81993363E-07     -0.18444545E-10      0.16106215E-14
      0.10002689E+03      0.19638434E+00     -0.27283170E-03
      0.14761838E-06     -0.36489409E-10      0.34061660E-14
      0.10559695E+03      0.11166947E+00     -0.13274337E-03
      0.63280339E-07     -0.14446442E-10      0.12849787E-14
      0.93286652E+02      0.14874990E+00     -0.17618379E-03
      0.86190994E-07     -0.20051906E-10      0.18041747E-14
      0.76232033E+02      0.20284837E+00     -0.22640727E-03
      0.10709446E-06     -0.24136786E-10      0.21098913E-14
      0.80615746E+02      0.16155207E+00     -0.15856669E-03
      0.67598805E-07     -0.14155853E-10      0.11769497E-14
      0.69257370E+02      0.14735714E+00     -0.14307458E-03
      0.60859755E-07     -0.12652909E-10      0.10402799E-14
      0.65542068E+02      0.21321209E+00     -0.23159801E-03
      0.10890540E-06     -0.24522995E-10      0.21451103E-14
      0.67956924E+02      0.17734541E+00     -0.18897423E-03
      0.88246182E-07     -0.19897070E-10      0.17489418E-14
      0.76020576E+02      0.14977276E+00     -0.15771922E-03
      0.72710293E-07     -0.16306271E-10      0.14325036E-14
      0.71861351E+02      0.12004134E+00     -0.12219911E-03
      0.55102301E-07     -0.12201038E-10      0.10643674E-14
      0.78701859E+02      0.11667708E+00     -0.10989279E-03
      0.45510973E-07     -0.93904494E-11      0.77671619E-15
      0.68299271E+02      0.15027580E+00     -0.16088740E-03
      0.75706708E-07     -0.17220374E-10      0.15261218E-14
      0.60676434E+02      0.17702004E+00     -0.17758377E-03
      0.77608973E-07     -0.16400374E-10      0.13608400E-14
      0.61385433E+02      0.18034187E+00     -0.19481572E-03
      0.92069506E-07     -0.20875192E-10      0.18378396E-14
      0.67246384E+02      0.16962233E+00     -0.18997227E-03
      0.92638622E-07     -0.21595940E-10      0.19460997E-14
      0.63648552E+02      0.16428144E+00     -0.17246541E-03
      0.80936957E-07     -0.18448807E-10      0.16408026E-14
      0.71419800E+02      0.13490698E+00     -0.12798781E-03
      0.52735114E-07     -0.10684561E-10      0.86226646E-15
      0.68439453E+02      0.13216035E+00     -0.12318612E-03
      0.51527888E-07     -0.10746369E-10      0.89666071E-15
      0.65237343E+02      0.13610256E+00     -0.12401486E-03
      0.50999695E-07     -0.10482127E-10      0.86412327E-15
      0.57728359E+02      0.17083204E+00     -0.17332986E-03
      0.79960529E-07     -0.18057708E-10      0.15981752E-14
      0.42347958E+02      0.22029744E+00     -0.22851223E-03
      0.10671638E-06     -0.24042547E-10      0.21072488E-14
      0.36951237E+02      0.21420886E+00     -0.18982521E-03
      0.75829497E-07     -0.14858156E-10      0.11565182E-14
      0.29911377E+02      0.26937836E+00     -0.26733635E-03
      0.11893461E-06     -0.25543593E-10      0.21444899E-14
      0.47551651E+02      0.25220171E+00     -0.26953209E-03
      0.12760344E-06     -0.28939458E-10      0.25447900E-14
      0.58020412E+02      0.23523439E+00     -0.23633365E-03
      0.10346147E-06     -0.21831703E-10      0.18059867E-14
      0.75177528E+02      0.23051132E+00     -0.24138262E-03
      0.10767837E-06     -0.23007634E-10      0.19212069E-14
      0.33155632E+02      0.36984837E+00     -0.40300860E-03
      0.19204526E-06     -0.43415292E-10      0.37889397E-14
      0.44342865E+02      0.35996145E+00     -0.40530402E-03
      0.19827426E-06     -0.45883589E-10      0.40870526E-14
      0.69711342E+02      0.30276069E+00     -0.35054356E-03
      0.17252079E-06     -0.39994466E-10      0.35644586E-14
      0.70745140E+02      0.29890972E+00     -0.32877221E-03
      0.15366012E-06     -0.34073900E-10      0.29284125E-14
      0.60698135E+02      0.35317305E+00     -0.38598198E-03
      0.17968227E-06     -0.39589006E-10      0.33761916E-14
      0.70247330E+02      0.36498299E+00     -0.41389861E-03
      0.19925074E-06     -0.45290906E-10      0.39710764E-14
      0.61033356E+02      0.34509617E+00     -0.37522637E-03
      0.17563750E-06     -0.39101705E-10      0.33745920E-14
      0.53204094E+02      0.32679617E+00     -0.33113762E-03
      0.14639376E-06     -0.31053386E-10      0.25728245E-14
      0.61846207E+02      0.29761299E+00     -0.33152619E-03
      0.16124976E-06     -0.37326097E-10      0.33350237E-14
      0.12713615E+02      5.53807710E-02     -5.55721584E-05
     0.24401781E-07     -0.51747528E-11      0.42739545E-15
